HIERARCHY
ROOT hip
{
	OFFSET 0.000000 0.000000 0.000000 
	CHANNELS 6 Xposition Yposition Zposition Xrotation Zrotation Yrotation
	JOINT abdomen
	{
		OFFSET 0.000000 3.402643 0.000000 
		CHANNELS 3 Xrotation Zrotation Yrotation
		JOINT chest
		{
			OFFSET 0.000000 8.438565 -0.680529 
			CHANNELS 3 Xrotation Zrotation Yrotation
			JOINT neck
			{
				OFFSET 0.000000 10.207942 -0.272212 
				CHANNELS 3 Xrotation Zrotation Yrotation
				JOINT head
				{
					OFFSET 0.000000 3.130431 0.000000 
					CHANNELS 3 Xrotation Zrotation Yrotation
					End Site
					{
						OFFSET 0.000000 3.130435 0.000000 
					}
				}
			}
			JOINT lCollar
			{
				OFFSET 3.470700 6.669187 -0.816635 
				CHANNELS 3 Yrotation Zrotation Xrotation
				JOINT lShldr
				{
					OFFSET 3.198488 0.000000 0.000000 
					CHANNELS 3 Zrotation Yrotation Xrotation
					JOINT lForeArm
					{
						OFFSET 10.139888 0.000000 0.000000 
						CHANNELS 3 Yrotation Zrotation Xrotation
						JOINT lHand
						{
							OFFSET 8.370511 0.000000 0.000000 
							CHANNELS 3 Zrotation Yrotation Xrotation
							End Site
							{
								OFFSET 4.083176 0.000000 0.000000 
							}
						}
					}
				}
			}
			JOINT rCollar
			{
				OFFSET -3.470700 6.669187 -0.816635 
				CHANNELS 3 Yrotation Zrotation Xrotation
				JOINT rShldr
				{
					OFFSET -3.198488 0.000000 0.000000 
					CHANNELS 3 Zrotation Yrotation Xrotation
					JOINT rForeArm
					{
						OFFSET -10.139888 0.000000 0.000000 
						CHANNELS 3 Yrotation Zrotation Xrotation
						JOINT rHand
						{
							OFFSET -8.370511 0.000000 0.000000 
							CHANNELS 3 Zrotation Yrotation Xrotation
							End Site
							{
								OFFSET -4.083176 0.000000 0.000000 
							}
						}
					}
				}
			}
		}
	}
	JOINT lThigh
	{
		OFFSET 5.308129 -1.633274 1.361059 
		CHANNELS 3 Xrotation Zrotation Yrotation
		JOINT lShin
		{
			OFFSET -2.041588 -20.007561 0.000000 
			CHANNELS 3 Xrotation Zrotation Yrotation
			JOINT lFoot
			{
				OFFSET 0.000000 -19.190928 -1.224953 
				CHANNELS 3 Xrotation Yrotation Zrotation
				End Site
				{
					OFFSET 0.000000 -2.449906 4.627600 
				}
			}
		}
	}
	JOINT rThigh
	{
		OFFSET -5.308129 -1.633274 1.361059 
		CHANNELS 3 Xrotation Zrotation Yrotation
		JOINT rShin
		{
			OFFSET 2.041588 -20.007561 0.000000 
			CHANNELS 3 Xrotation Zrotation Yrotation
			JOINT rFoot
			{
				OFFSET 0.000000 -19.190928 -1.224953 
				CHANNELS 3 Xrotation Yrotation Zrotation
				End Site
				{
					OFFSET 0.000000 -2.449906 4.627600 
				}
			}
		}
	}
}
MOTION
Frames: 13
Frame Time: 0.033333
-44.860924 29.019791 15.659818 -2.657559 31.229305 89.716461 0.000000 0.000000 0.000000 25.978308 4.304251 4.309653 15.614917 3.603308 0.616473 3.072449 7.460491 -0.629853 -22.988129 26.424944 24.990253 45.835163 -26.269505 -45.006287 -0.058470 3.489785 3.687887 -9.209262 -23.343882 -0.926707 31.854881 -17.240694 24.997475 -35.337593 20.060881 -45.003063 1.312728 4.312843 -23.047098 -12.495662 3.078907 -4.194246 -49.356472 9.041873 -3.890482 70.616951 5.599905 10.782322 11.070376 -0.608642 -6.410657 -45.582291 -27.536310 -7.875906 66.402992 1.318362 4.536320 12.854628 0.645239 5.062377 
-44.875801 28.896132 15.433661 -2.589104 31.792021 89.413429 0.000000 0.000000 0.000000 25.462067 5.073422 4.334007 15.884271 4.794357 0.882360 2.434631 4.101236 0.724996 -18.045082 21.959686 24.990709 46.526409 -26.634680 -45.006844 -13.548837 1.615948 -7.157402 -5.309207 -20.802523 -2.004669 26.984774 -10.763413 24.383657 -46.680550 22.310612 -45.000767 0.071768 4.991486 -26.220749 -3.824120 6.965854 -3.590491 -49.031895 8.661912 -3.873964 71.227036 5.706787 11.001646 10.807652 -0.558741 -6.645700 -45.534592 -28.035181 -7.606398 66.605263 1.250174 5.394460 13.178763 0.846702 6.976513 
-44.866440 28.663795 15.220737 -2.862491 32.264641 89.118797 0.000000 0.000000 0.000000 25.335754 6.059483 4.007435 16.805788 5.961448 2.435140 -0.404061 2.995899 2.171129 -14.421474 17.533117 24.995796 40.352615 -24.762074 -45.014145 -37.740261 2.196004 -1.537148 -3.137535 -20.120565 -2.524198 23.761053 -8.016803 23.483318 -42.925056 20.936695 -45.003979 17.808865 4.414926 -17.609287 -2.268703 9.129699 -3.581412 -49.230434 8.680342 -3.795903 72.170227 5.716316 11.071671 10.545425 -0.525615 -6.431541 -45.629734 -28.326159 -7.409598 67.144661 1.201342 6.412097 13.099089 0.984777 8.163942 
-44.814564 28.514254 15.118505 -3.868336 32.782116 88.502800 0.000000 0.000000 0.000000 25.754808 7.203891 3.446064 17.616259 6.964790 4.092865 -2.445098 2.445127 4.027268 -13.498744 15.305030 24.995472 32.404266 -21.034603 -45.009144 -57.037224 -0.349422 4.956064 -1.314635 -18.509075 -2.930095 20.484106 -7.558221 23.720932 -35.193256 18.514006 -45.000858 41.067951 4.994518 -14.818866 -4.857264 4.827315 -3.738085 -49.404938 9.500257 -3.763888 73.178566 5.745154 10.380090 9.951068 -0.459714 -5.993423 -45.168545 -27.777603 -7.272875 67.516457 1.172012 6.938688 12.856581 1.139095 9.742687 
-44.847000 28.416065 15.142046 -4.613341 33.455994 87.552361 0.000000 0.000000 0.000000 26.718096 7.297642 2.530358 18.860849 8.260231 4.974511 -3.974378 -0.871090 7.647228 -13.777461 15.943012 24.995937 22.410318 -17.622398 -45.004250 -73.013779 -4.378714 4.697507 0.988890 -14.009886 -3.377325 16.890331 -4.879565 24.373524 -34.589798 17.432360 -44.995888 52.534317 4.998618 -14.923451 -7.915102 0.902944 -3.732998 -49.050060 10.594846 -3.532902 73.526031 5.695712 9.710044 9.725918 -0.444968 -5.761820 -44.985931 -26.618084 -6.477613 67.664085 0.839817 6.475611 13.808255 1.543391 11.906908 
-44.934196 28.372917 15.258652 -4.633673 34.050446 87.085526 0.000000 0.000000 0.000000 27.521814 6.794553 1.505596 20.272545 8.962290 5.556467 -4.729324 -3.661275 11.067620 -13.039151 14.182120 24.997925 16.459541 -15.403790 -45.009159 -84.375275 -5.006636 2.657994 5.351744 -13.307006 -4.068064 14.017015 -2.130592 24.998987 -31.781658 16.503319 -45.001072 64.258774 4.991199 -14.859668 -10.576757 -1.687739 -3.648211 -48.505329 11.513317 -2.912179 73.430641 5.384257 8.860188 9.785271 -0.424115 -5.319668 -44.723621 -25.710901 -6.043371 67.665710 0.536938 5.722594 13.566026 1.459222 11.928513 
-45.017242 28.396049 15.368086 -4.363033 34.410286 87.047440 0.000000 0.000000 0.000000 27.879644 6.327770 0.609314 21.585863 8.673247 6.027090 -5.123640 -3.899316 12.529036 -12.283428 10.894547 24.992458 12.736524 -13.915542 -45.007339 -91.695076 -5.003637 0.909819 8.074549 -14.676410 -4.513787 11.527944 -1.082040 24.994228 -25.356112 16.677811 -45.005535 75.213829 4.980007 -13.217587 -11.839187 -1.835332 -3.645886 -47.987774 12.155752 -2.321597 73.198898 5.020319 7.488920 9.663303 -0.374034 -4.984203 -44.370079 -25.065123 -5.794949 67.546585 0.449199 5.986961 12.758390 1.019240 8.885335 
-45.127567 28.380655 15.425944 -4.224230 34.889854 87.034004 0.000000 0.000000 0.000000 28.405180 5.751939 -0.127293 22.793362 8.760966 6.009278 -6.497024 -4.951405 13.792468 -11.645427 10.146542 24.992254 7.068901 -14.296587 -45.003483 -97.147690 -5.007758 0.282436 6.896438 -13.701445 -4.294058 8.315296 1.544865 24.998217 -20.377527 17.080917 -44.997654 82.477692 3.717062 -8.560187 -9.967921 -2.018383 -3.620529 -47.525032 12.479129 -2.175623 73.188148 4.826743 6.244318 9.590043 -0.323134 -5.072254 -43.880013 -24.448685 -5.602431 67.366692 0.459277 6.637999 13.047353 0.715231 5.886410 
-45.257355 28.295341 15.410316 -3.926318 35.487392 87.160858 0.000000 0.000000 0.000000 29.146841 5.282944 -0.568496 23.338844 8.713027 5.967704 -6.844943 -5.873390 14.471226 -11.106169 8.884909 24.991179 2.217290 -14.822255 -45.003609 -99.861214 -5.007923 1.910597 5.919336 -11.902717 -4.066180 5.555190 4.752061 24.996790 -16.278109 16.351166 -44.981834 87.071564 2.029826 -6.055340 -7.910992 -2.822734 -3.528818 -47.046631 12.469319 -1.891535 73.163658 4.689939 5.942165 9.763471 -0.388743 -4.915673 -43.591835 -24.422756 -5.305145 67.286659 0.322786 7.143665 13.516418 0.726240 5.567715 
-45.366379 28.243723 15.398484 -3.834148 36.075733 87.316559 0.000000 0.000000 0.000000 29.897139 5.331650 -0.686081 23.637962 8.497365 6.093201 -6.437020 -6.778400 14.586446 -10.053571 6.529099 24.998226 -1.492820 -15.823023 -45.001839 -100.217422 -4.998317 3.707241 4.680773 -9.756350 -3.844769 2.948332 7.183020 24.989758 -12.835598 15.301543 -40.968166 89.477974 0.171875 -7.705504 -4.905446 -4.670605 -3.489545 -46.561996 12.636456 -1.459353 72.866570 4.524515 5.880977 10.065413 -0.351785 -4.343724 -43.210941 -24.715630 -5.395144 67.723740 0.351536 8.333145 12.828065 0.666587 5.388878 
-45.398033 28.274906 15.391533 -4.430460 36.597580 87.060944 0.000000 0.000000 0.000000 30.691332 5.829857 -0.500430 23.712683 8.612475 6.184474 -5.757432 -7.380265 14.408327 -8.823442 5.611376 24.998428 -7.165506 -18.355326 -45.004337 -99.696373 -4.991215 4.631382 2.237849 -6.136865 -3.552938 0.889057 8.353047 24.991446 -7.459851 14.776867 -33.677383 89.735443 -1.185261 -6.885160 -2.185268 -5.548166 -3.486460 -46.167908 13.348119 -1.363448 73.241119 4.416489 4.350899 9.555497 -0.264166 -4.084364 -42.339260 -24.665003 -5.579187 68.293266 0.714009 11.293290 12.041802 0.545124 4.712380 
-45.355171 28.300970 15.353902 -4.645194 36.641941 86.858719 0.000000 0.000000 0.000000 31.197172 6.054458 -0.500419 23.547163 8.859966 5.892007 -5.296622 -8.097294 14.482924 -7.625018 4.139338 24.989752 -12.612515 -20.567808 -45.004265 -98.349533 -4.991132 4.441731 1.211294 -2.901394 -3.466181 0.008246 8.933810 24.992855 -1.429481 14.012882 -27.384277 88.412773 -2.096156 -4.479803 -2.160823 -5.899844 -3.502054 -46.220654 13.815680 -1.409974 74.123413 4.277606 2.498501 8.618577 -0.238136 -4.253646 -42.973560 -24.528154 -3.776157 70.552208 0.498917 15.817678 11.100147 0.766025 7.066754 
-45.235577 28.358604 15.302912 -4.521472 36.642433 87.145676 0.000000 0.000000 0.000000 31.705059 6.298519 -0.569415 23.260021 9.034681 5.261027 -4.979604 -8.158667 14.089564 -6.968497 3.116627 24.995895 -18.761395 -22.457085 -45.005592 -96.282501 -3.291400 6.593552 -2.990725 -1.729145 -3.282244 -0.875150 10.061659 24.990679 3.270584 12.750610 -23.074862 86.966286 -2.454131 -3.578117 -4.113961 -6.634436 -3.435755 -46.355621 13.641617 -1.479749 76.108864 4.298677 0.521151 6.598342 -0.211600 -4.573739 -43.591129 -24.773987 -2.716894 74.458679 -0.262677 17.078527 8.079514 0.519171 7.102099 
